<svg xmlns="http://www.w3.org/2000/svg" viewBox="0 0 72 72"><linearGradient id="a" gradientUnits="userSpaceOnUse" x1="0" y1="70" x2="72" y2="142" gradientTransform="translate(0 -70)"><stop offset="0" stop-color="#37aee2"/><stop offset="1" stop-color="#1e96c8"/></linearGradient><path fill="url(#a)" d="M0 0h72v72H0z"/><g><path d="M29.816 49.3c-1.1 0-.9-.4-1.3-1.4l-3.1-10.4 19.5-12.2 2.3.6-1.9 5.2-15.5 18.2z" fill="#c8daea"/><path d="M29.816 49.3c.8 0 1.2-.4 1.7-.8.7-.7 9.9-9.7 9.9-9.7l-5.7-1.4-5.2 3.3-.7 8.3v.3z" fill="#a9c9dd"/><linearGradient id="b" gradientUnits="userSpaceOnUse" x1="-156.322" y1="-112.634" x2="-155.66" y2="-111.575" gradientTransform="translate(1666.754 1208.418) scale(10.4167)"><stop offset="0" stop-color="#eff7fc"/><stop offset="1" stop-color="#fff"/></linearGradient><path d="M30.416 40.8l13.3 9.8c1.5.8 2.6.4 3-1.4l5.4-25.6c.6-2.2-.9-3.2-2.3-2.6l-31.8 12.4c-2.2.9-2.2 2.1-.4 2.6l8.2 2.6 18.9-11.9c.9-.6 1.7-.2 1 .4l-15.3 13.7z" fill="url(#b)"/></g></svg>